<svg width="800" height="800" viewBox="0 0 800 800" fill="none" xmlns="http://www.w3.org/2000/svg">
<path d="M300 366.667V200C300 144.772 344.77 100 400 100C455.23 100 500 144.772 500 200V365.577M346.666 700H453.333C528.006 700 565.343 700 593.866 685.467C618.953 672.683 639.35 652.287 652.133 627.2C666.666 598.677 666.666 561.34 666.666 486.667V406.667C666.666 369.33 666.666 350.66 659.4 336.4C653.01 323.856 642.81 313.658 630.266 307.266C616.006 300 597.336 300 560 300H240C202.663 300 183.994 300 169.734 307.266C157.189 313.658 146.991 323.856 140.599 336.4C133.333 350.66 133.333 369.33 133.333 406.667V486.667C133.333 561.34 133.333 598.677 147.865 627.2C160.649 652.287 181.046 672.683 206.134 685.467C234.656 700 271.993 700 346.666 700Z" stroke="white" stroke-width="66.6667" stroke-linecap="round" stroke-linejoin="round"/>
</svg>
