<svg width="800" height="800" viewBox="0 0 800 800" fill="none" xmlns="http://www.w3.org/2000/svg">
<path d="M399.998 741.519C586.493 741.519 741.518 586.83 741.518 400C741.518 213.504 586.159 58.4814 399.663 58.4814C212.832 58.4814 58.4805 213.504 58.4805 400C58.4805 586.83 213.168 741.519 399.998 741.519ZM399.998 684.599C241.962 684.599 115.733 558.036 115.733 400C115.733 242.299 241.628 115.401 399.663 115.401C557.363 115.401 684.26 242.299 684.598 400C684.933 558.036 557.699 684.599 399.998 684.599ZM399.998 381.25C448.546 381.584 487.386 340.067 487.386 285.491C487.386 234.599 448.546 192.076 399.998 192.076C351.448 192.076 312.609 234.599 312.609 285.491C312.609 340.067 351.448 380.916 399.998 381.25ZM243.97 571.094H555.689C569.082 571.094 575.779 562.053 575.779 550C575.779 512.5 519.529 415.737 399.998 415.737C280.466 415.737 224.216 512.5 224.216 550C224.216 562.053 230.913 571.094 243.97 571.094Z" fill="white"/>
</svg>
